<svg width="20" height="20" viewBox="0 0 20 20" fill="none" xmlns="http://www.w3.org/2000/svg">
<path d="M5 17.7778L7.77778 13.3333H6.11111V10L3.33334 14.4444H5V17.7778ZM2.22223 7.77778H8.88889V2.22222H2.22223V7.77778ZM2.22223 17.7778H8.88889V10H2.22223V17.7778ZM10 20H1.11111C0.7963 20 0.532226 19.8933 0.318893 19.68C0.10556 19.4667 -0.000736896 19.203 3.84467e-06 18.8889V2.22222C3.84467e-06 1.61111 0.217781 1.08778 0.653337 0.652224C1.08889 0.216668 1.61186 -0.000738854 2.22223 1.88644e-06H8.88889C9.5 1.88644e-06 10.0233 0.21778 10.4589 0.653335C10.8944 1.08889 11.1119 1.61185 11.1111 2.22222V10H12.5C13.037 10 13.4956 10.19 13.8756 10.57C14.2556 10.95 14.4452 11.4081 14.4444 11.9444V17.0833C14.4444 17.3981 14.5741 17.6852 14.8333 17.9444C15.0926 18.2037 15.3796 18.3333 15.6944 18.3333C16.0278 18.3333 16.3196 18.2037 16.57 17.9444C16.8204 17.6852 16.9452 17.3981 16.9444 17.0833V6.66667H16.6667C16.3519 6.66667 16.0878 6.56 15.8744 6.34667C15.6611 6.13333 15.5548 5.86963 15.5556 5.55556V3.88889C15.5556 3.74074 15.6111 3.61111 15.7222 3.5C15.8333 3.38889 15.963 3.33333 16.1111 3.33333V2.22222C16.1111 2.07408 16.1667 1.94445 16.2778 1.83333C16.3889 1.72222 16.5185 1.66667 16.6667 1.66667C16.8148 1.66667 16.9444 1.72222 17.0556 1.83333C17.1667 1.94445 17.2222 2.07408 17.2222 2.22222V3.33333H18.3333V2.22222C18.3333 2.07408 18.3889 1.94445 18.5 1.83333C18.6111 1.72222 18.7407 1.66667 18.8889 1.66667C19.037 1.66667 19.1667 1.72222 19.2778 1.83333C19.3889 1.94445 19.4444 2.07408 19.4444 2.22222V3.33333C19.5926 3.33333 19.7222 3.38889 19.8333 3.5C19.9444 3.61111 20 3.74074 20 3.88889V5.55556C20 5.87037 19.8933 6.13445 19.68 6.34778C19.4667 6.56111 19.203 6.66741 18.8889 6.66667H18.6111V17.0833C18.6111 17.8611 18.3285 18.5418 17.7633 19.1256C17.1981 19.7093 16.5089 20.0007 15.6956 20C14.8993 20 14.2141 19.7081 13.64 19.1244C13.0659 18.5407 12.7789 17.8604 12.7789 17.0833V11.9444C12.7789 11.8519 12.7556 11.7822 12.7089 11.7356C12.6622 11.6889 12.593 11.6659 12.5011 11.6667H11.1111V18.8889C11.1111 19.2037 11.0044 19.4678 10.7911 19.6811C10.5778 19.8944 10.3141 20.0007 10 20Z" fill="#9DA0A5"/>
</svg>
